
<svg xmlns="http://www.w3.org/2000/svg" version="1.1" xmlns:xlink="http://www.w3.org/1999/xlink" preserveAspectRatio="none" x="0px" y="0px" width="64px" height="96px" viewBox="0 0 64 96">
<defs>
<g id="backButton_0_Layer0_0_FILL">
<path id="outline" fill="#000000" stroke="none" stroke-width="0" stroke-opacity="0" d="
M 314.05 318.35
L 302.05 318.35 282.05 342.35 302.05 366.35 314.05 366.35 314.05 318.35
M 291.35 340.65
Q 291.6 340.4 292 340.5 292.35 340.55 292.6 340.9
L 293.15 341.65
Q 293.7 339.5 295.4 337.75
L 295.45 337.75
Q 298.1 335.1 301.75 335.1 305.45 335.1 308.1 337.75 310.7 340.4 310.7 344.05 310.7 344.4 310.45 344.75 310.15 345 309.75 345 309.4 345 309.15 344.75 308.85 344.4 308.85 344.05 308.85 341.15 306.75 339.05 304.7 337 301.75 337 298.85 337 296.75 339.05 295.4 340.4 294.95 342.25
L 296.1 341.5
Q 296.4 341.25 296.75 341.35 297.15 341.4 297.4 341.75 297.6 342.05 297.5 342.4 297.4 342.8 297.1 343.05
L 294.4 344.8
Q 294.15 345 293.9 345.05 293.7 345.05 293.6 345.05
L 293.45 345.05
Q 293.2 344.9 293 344.8 292.9 344.6 292.85 344.5
L 291.1 342
Q 290.85 341.65 290.9 341.3 290.95 340.9 291.35 340.65
M 300 345.65
Q 299.25 345.05 299.25 344.05 299.25 343 300.1 342.3
L 300.1 342.35
Q 300.75 341.6 301.7 341.6 302.7 341.6 303.45 342.35 304.15 343.05 304.15 344.05 304.15 345.05 303.5 345.65 303.45 345.75 303.4 345.8 302.7 346.5 301.7 346.5 300.7 346.5 300 345.65 Z"/>
</g>
</defs>

<g transform="matrix( 2, 0, 0, 2, 32,48) ">
<g transform="matrix( 1, 0, 0, 1, -298.05,-342.35) ">
<use xlink:href="#backButton_0_Layer0_0_FILL"/>
</g>
</g>
</svg>
