<?xml version="1.0" encoding="UTF-8" standalone="no"?>
<svg
   xmlns:dc="http://purl.org/dc/elements/1.1/"
   xmlns:cc="http://creativecommons.org/ns#"
   xmlns:rdf="http://www.w3.org/1999/02/22-rdf-syntax-ns#"
   xmlns:svg="http://www.w3.org/2000/svg"
   xmlns="http://www.w3.org/2000/svg"
   xmlns:xlink="http://www.w3.org/1999/xlink"
   xmlns:sodipodi="http://sodipodi.sourceforge.net/DTD/sodipodi-0.dtd"
   xmlns:inkscape="http://www.inkscape.org/namespaces/inkscape"
   version="1.1"
   preserveAspectRatio="none"
   x="0px"
   y="0px"
   width="31.6"
   height="56.099998"
   viewBox="0 0 31.6 56.099998"
   id="svg116"
   sodipodi:docname="hourglass.svg"
   inkscape:version="0.92.3 (2405546, 2018-03-11)">
  <metadata
     id="metadata120">
    <rdf:RDF>
      <cc:Work
         rdf:about="">
        <dc:format>image/svg+xml</dc:format>
        <dc:type
           rdf:resource="http://purl.org/dc/dcmitype/StillImage" />
        <dc:title></dc:title>
      </cc:Work>
    </rdf:RDF>
  </metadata>
  <sodipodi:namedview
     pagecolor="#ffffff"
     bordercolor="#666666"
     borderopacity="1"
     objecttolerance="10"
     gridtolerance="10"
     guidetolerance="10"
     inkscape:pageopacity="0"
     inkscape:pageshadow="2"
     inkscape:window-width="499"
     inkscape:window-height="429"
     id="namedview118"
     showgrid="false"
     fit-margin-top="0"
     fit-margin-left="0"
     fit-margin-right="0"
     fit-margin-bottom="0"
     inkscape:zoom="2.40625"
     inkscape:cx="319.5"
     inkscape:cy="-167.4"
     inkscape:window-x="3045"
     inkscape:window-y="311"
     inkscape:window-maximized="0"
     inkscape:current-layer="svg116" />
  <defs
     id="defs82">
    <linearGradient
       id="Gradient_1"
       gradientUnits="userSpaceOnUse"
       x1="-5"
       y1="0"
       x2="5"
       y2="0"
       spreadMethod="pad">
      <stop
         offset="0%"
         stop-color="#FFFFFF"
         stop-opacity="0"
         id="stop66" />
      <stop
         offset="50.19607843137255%"
         stop-color="#FFFFFF"
         stop-opacity="0.32941176470588235"
         id="stop68" />
      <stop
         offset="100%"
         stop-color="#FFFFFF"
         stop-opacity="0"
         id="stop70" />
    </linearGradient>
    <g
       id="hourglass_gradient_glass_0_Layer0_0_FILL">
      <path
         d="m 5,-8.6 v -3.7 H -5 v 3.7 q 0,1.9 0.35,3.25 0.35,1.2 1,2.2 0.5,0.7 1.2,1.35 0.7,0.6 0.8,0.7 0.15,0.2 0.25,0.45 0.15,0.3 0.15,0.65 0,0.35 -0.15,0.65 -0.1,0.25 -0.25,0.45 -0.1,0.1 -0.8,0.7 -0.7,0.65 -1.2,1.35 -0.65,1 -1,2.2 Q -5,6.7 -5,8.6 v 3.7 H 5 V 8.6 Q 5,6.7 4.65,5.35 4.3,4.15 3.65,3.15 3.15,2.45 2.45,1.8 1.75,1.2 1.65,1.1 1.5,0.9 1.4,0.65 1.25,0.35 1.25,0 q 0,-0.35 0.15,-0.65 0.1,-0.25 0.25,-0.45 0.1,-0.1 0.8,-0.7 0.7,-0.65 1.2,-1.35 0.65,-1 1,-2.2 Q 5,-6.7 5,-8.6 Z"
         id="path73"
         inkscape:connector-curvature="0"
         style="fill:url(#Gradient_1);stroke:none" />
    </g>
    <g
       id="hourglass_base_0_Layer0_0_FILL">
      <path
         d="m 7.15,-11.85 v -0.9 q 0,-0.55 -0.5,-0.55 h -13.3 q -0.5,0 -0.5,0.55 v 0.9 q 0,0.5 0.5,0.5 H -5 6.65 q 0.5,0 0.5,-0.5 z"
         id="path76"
         inkscape:connector-curvature="0"
         style="fill:#000000;stroke:none" />
    </g>
    <path
       id="hourglass_0_Layer3_0_1_STROKES"
       d="M 5,11.75 V 8.6 Q 5,6.7 4.65,5.35 4.3,4.15 3.65,3.15 3.15,2.45 2.45,1.8 1.75,1.2 1.65,1.1 1.5,0.9 1.4,0.65 1.25,0.35 1.25,0 q 0,-0.35 0.15,-0.65 0.1,-0.25 0.25,-0.45 0.1,-0.1 0.8,-0.7 0.7,-0.65 1.2,-1.35 0.65,-1 1,-2.2 Q 5,-6.7 5,-8.6 v -3.05 q -0.021289,-0.628906 -0.65,-0.65 h -8.7 q -0.6287109,0.02109 -0.65,0.65 v 3.05 q 0,1.9 0.35,3.25 0.35,1.2 1,2.2 0.5,0.7 1.2,1.35 0.7,0.6 0.8,0.7 0.15,0.2 0.25,0.45 0.15,0.3 0.15,0.65 0,0.35 -0.15,0.65 -0.1,0.25 -0.25,0.45 -0.1,0.1 -0.8,0.7 -0.7,0.65 -1.2,1.35 -0.65,1 -1,2.2 Q -5,6.7 -5,8.6 v 3.15 q 0.018555,0.532031 0.55,0.55 h 8.9 Q 4.9814453,12.281836 5,11.75 V 12.3 H 4.45 M 5,-11.65 V -12.3 H 4.35 m -8.7,0 H -5 v 0.65 M -4.45,12.3 H -5 v -0.55"
       inkscape:connector-curvature="0"
       style="fill:none;stroke:#000000;stroke-width:1.5;stroke-linecap:round;stroke-linejoin:round;stroke-opacity:0.32941176" />
    <path
       id="hourglass_base_0_Layer0_0_1_STROKES"
       d="m 7.15,-12.75 q 0,-0.55 -0.5,-0.55 h -13.3 q -0.5,0 -0.5,0.55 v 0.9 q 0,0.5 0.5,0.5 H -5 6.65 q 0.5,0 0.5,-0.5 z"
       inkscape:connector-curvature="0"
       style="fill:none;stroke:#000000;stroke-width:1.5;stroke-linecap:round;stroke-linejoin:round;stroke-opacity:0.32941176" />
    <path
       id="hourglass_0_Layer0_0_1_STROKES"
       d="M 5,11.75 V 8.6 Q 5,6.7 4.65,5.35 4.3,4.15 3.65,3.15 3.15,2.45 2.45,1.8 1.75,1.2 1.65,1.1 1.5,0.9 1.4,0.65 1.25,0.35 1.25,0 q 0,-0.35 0.15,-0.65 0.1,-0.25 0.25,-0.45 0.1,-0.1 0.8,-0.7 0.7,-0.65 1.2,-1.35 0.65,-1 1,-2.2 Q 5,-6.7 5,-8.6 v -3.05 q -0.021289,-0.628906 -0.65,-0.65 h -8.7 q -0.6287109,0.02109 -0.65,0.65 v 3.05 q 0,1.9 0.35,3.25 0.35,1.2 1,2.2 0.5,0.7 1.2,1.35 0.7,0.6 0.8,0.7 0.15,0.2 0.25,0.45 0.15,0.3 0.15,0.65 0,0.35 -0.15,0.65 -0.1,0.25 -0.25,0.45 -0.1,0.1 -0.8,0.7 -0.7,0.65 -1.2,1.35 -0.65,1 -1,2.2 Q -5,6.7 -5,8.6 v 3.15 q 0.018555,0.532031 0.55,0.55 h 8.9 Q 4.9814453,12.281836 5,11.75 V 12.3 H 4.45 M 5,-11.65 V -12.3 H 4.35 m -8.7,0 H -5 v 0.65 M -4.45,12.3 H -5 v -0.55"
       inkscape:connector-curvature="0"
       style="fill:none;stroke:#000000;stroke-width:1.5;stroke-linecap:round;stroke-linejoin:round;stroke-opacity:0" />
  </defs>
  <g
     transform="matrix(2,0,0,2,15.8,28)"
     id="g114">
    <g
       id="g86">
      <use
         xlink:href="#hourglass_0_Layer3_0_1_STROKES"
         id="use84"
         x="0"
         y="0"
         width="100%"
         height="100%" />
    </g>
    <g
       id="g92">
      <g
         id="g90">
        <use
           xlink:href="#hourglass_gradient_glass_0_Layer0_0_FILL"
           id="use88"
           x="0"
           y="0"
           width="100%"
           height="100%" />
      </g>
    </g>
    <g
       transform="translate(0,-12.25)"
       id="g100">
      <g
         transform="translate(0,12.3)"
         id="g98">
        <use
           xlink:href="#hourglass_base_0_Layer0_0_FILL"
           id="use94"
           x="0"
           y="0"
           width="100%"
           height="100%" />
        <use
           xlink:href="#hourglass_base_0_Layer0_0_1_STROKES"
           id="use96"
           x="0"
           y="0"
           width="100%"
           height="100%" />
      </g>
    </g>
    <g
       transform="translate(0,12.35)"
       id="g108">
      <g
         transform="translate(0,12.3)"
         id="g106">
        <use
           xlink:href="#hourglass_base_0_Layer0_0_FILL"
           id="use102"
           x="0"
           y="0"
           width="100%"
           height="100%" />
        <use
           xlink:href="#hourglass_base_0_Layer0_0_1_STROKES"
           id="use104"
           x="0"
           y="0"
           width="100%"
           height="100%" />
      </g>
    </g>
    <g
       id="g112">
      <use
         xlink:href="#hourglass_0_Layer0_0_1_STROKES"
         id="use110"
         x="0"
         y="0"
         width="100%"
         height="100%" />
    </g>
  </g>
</svg>
